<?xml version="1.0" encoding="UTF-8"?>
<svg version="1.1" xmlns="http://www.w3.org/2000/svg" width="490" height="368">
<path d="M0 0 C14.52 0 29.04 0 44 0 C44 6.27 44 12.54 44 19 C35.09 19 26.18 19 17 19 C17 77.41 17 135.82 17 196 C17.99 196 18.98 196 20 196 C19.99476318 194.70263916 19.98952637 193.40527832 19.98413086 192.06860352 C19.96608531 187.27352585 19.95456963 182.4784512 19.94506836 177.68334961 C19.94002712 175.60456844 19.93319426 173.52579084 19.92456055 171.44702148 C19.91248578 168.46597414 19.90676976 165.48497351 19.90234375 162.50390625 C19.89718246 161.56849503 19.89202118 160.6330838 19.88670349 159.66932678 C19.88662796 158.80850998 19.88655243 157.94769318 19.88647461 157.06079102 C19.884254 156.29912125 19.88203339 155.53745148 19.87974548 154.75270081 C20 153 20 153 21 152 C22.41570123 151.91348389 23.835595 151.89295096 25.25390625 151.90234375 C26.0229126 151.90484131 26.79191895 151.90733887 27.58422852 151.90991211 C28.56705811 151.91901611 29.5498877 151.92812012 30.5625 151.9375 C35.2340625 151.9684375 35.2340625 151.9684375 40 152 C40 158.93 40 165.86 40 173 C41.32 173.66 42.64 174.32 44 175 C44.96550781 175.58394531 45.93101562 176.16789063 46.92578125 176.76953125 C69.69935574 190.50722382 95.7915301 193.93784065 121.671875 188.18359375 C130.02294449 185.84098153 138.69037836 182.60447745 144.125 175.5 C147.22612425 169.7833368 146.78612708 163.28138437 146 157 C144.23009462 152.41433606 141.76334981 150.62546724 137.625 148.25 C124.02607773 142.24150182 107.01642718 143.21593539 92.39306641 142.47363281 C81.84731748 141.92873152 71.47631634 141.17073691 61.09765625 139.1484375 C60.3088205 138.99766754 59.51998474 138.84689758 58.70724487 138.69155884 C48.53226608 136.53694232 36.04186697 131.43587154 29.48828125 123.0703125 C29.10027344 122.42835938 28.71226562 121.78640625 28.3125 121.125 C27.91675781 120.48820312 27.52101562 119.85140625 27.11328125 119.1953125 C22.4759947 110.05090884 22.66535105 98.54432981 24.6875 88.62890625 C28.97143945 76.04483412 36.90949905 67.51605221 48.5 61.3125 C71.74673743 50.13689655 99.66826909 51.11719182 123.76171875 59.2734375 C129.04911521 61.22734661 133.94594579 63.4729729 139 66 C139.33 58.41 139.66 50.82 140 43 C155.84 43 171.68 43 188 43 C188.33 72.04 188.66 101.08 189 131 C193.95 126.05 193.95 126.05 199 121 C218.60666362 107.16000215 239.75754911 101.6959709 263.61816406 105.40722656 C282.56672115 109.42614815 300.07885314 121.16040023 310.75 137.375 C322.81538717 157.52113146 326.98319731 181.04171845 321.5 204.125 C314.41288881 226.03515361 300.6935675 245.25879577 280 256 C262.3132889 263.94685644 240.20716185 265.03315795 221.62890625 259.37890625 C210.14233741 255.01425738 194.86428826 248.72857652 189 237 C188.67 243.93 188.34 250.86 188 258 C172.16 258 156.32 258 140 258 C140 251.73 140 245.46 140 239 C149.57 239 159.14 239 169 239 C169 180.59 169 122.18 169 62 C165.7 62 162.4 62 159 62 C159 77.51 159 93.02 159 109 C152.73 109 146.46 109 140 109 C140 102.07 140 95.14 140 88 C138.35 87.34 136.7 86.68 135 86 C133.24546313 85.17932953 131.4909378 84.35863432 129.73657227 83.53759766 C107.95657433 73.53223545 82.57154882 70.34529078 59.69140625 78.8125 C52.98218184 81.77273835 47.47964609 84.92491317 44.58984375 91.9296875 C43.09574267 97.17388336 43.43363267 101.28229241 45.6875 106.25 C49.59389896 113.17067912 55.6768835 115.70497909 63 118 C78.46331026 122.06731918 94.68698157 122.2632084 110.56591797 123.21337891 C148.19410265 125.50168596 148.19410265 125.50168596 160.3125 138.25 C167.89669244 148.05241028 168.24413486 159.05256758 167 171 C164.49785548 183.07495585 156.85240009 192.86190351 147 200 C142.15261239 202.80871488 137.23418028 205.01899898 132 207 C130.86820313 207.43570313 129.73640625 207.87140625 128.5703125 208.3203125 C119.32441814 211.21344794 110.06073644 211.38945266 100.4375 211.4375 C99.14779297 211.44773193 97.85808594 211.45796387 96.52929688 211.46850586 C84.10761349 211.35573918 72.35093115 209.1881399 60.625 205.0625 C59.87041504 204.80452637 59.11583008 204.54655273 58.33837891 204.28076172 C53.08872502 202.458296 48.01007056 200.41225619 43 198 C43 203.61 43 209.22 43 215 C28.81 215 14.62 215 0 215 C0.07863281 210.50761719 0.15726562 206.01523437 0.23828125 201.38671875 C0.25913275 198.51982868 0.27610122 195.65394144 0.27929688 192.78710938 C0.28472022 188.24786659 0.30355078 183.71177023 0.40795898 179.17358398 C1.68124508 161.94786267 1.68124508 161.94786267 -3.84228516 146.57275391 C-6.91544659 143.61867848 -10.13404434 141.76112798 -14 140 C-14.79752686 139.59612061 -15.59505371 139.19224121 -16.41674805 138.77612305 C-16.93922119 138.52000244 -17.46169434 138.26388184 -18 138 C-21.29312827 141.2681483 -24.58275765 144.53976696 -27.86938477 147.81445312 C-28.9846729 148.92475584 -30.10086211 150.03415429 -31.21801758 151.14257812 C-37.37235376 157.25006087 -43.40057078 163.3715806 -49 170 C-50.00748863 171.15376559 -51.01657506 172.30613811 -52.02734375 173.45703125 C-58.07523837 180.41109189 -63.69629229 187.45241595 -69 195 C-63.72 195.33 -58.44 195.66 -53 196 C-53 202.27 -53 208.54 -53 215 C-75.44 215 -97.88 215 -121 215 C-121 208.73 -121 202.46 -121 196 C-118.99679688 196.13664063 -116.99359375 196.27328125 -114.9296875 196.4140625 C-101.16425315 197.36626847 -101.16425315 197.36626847 -88.38232422 193.39550781 C-84.12666973 189.32642691 -81.23213611 184.42966995 -78.37207031 179.32226562 C-76.3400381 175.88299687 -73.83310994 172.97728065 -71.1875 170 C-70.30019231 168.96665125 -69.41345497 167.93281243 -68.52734375 166.8984375 C-63.07598936 160.64665241 -57.58400185 154.5071251 -51.6640625 148.6953125 C-49.94231585 146.94123258 -48.34628746 145.11863982 -46.75 143.25 C-42.13000795 137.8793914 -37.0468026 132.96466658 -32 128 C-33.54572776 124.18371168 -35.88771245 122.02974257 -38.9375 119.3125 C-39.42549072 118.87607178 -39.91348145 118.43964355 -40.41625977 117.98999023 C-44.56381386 114.31104119 -48.86416093 110.83103264 -53.1796875 107.3515625 C-57.19115629 104.00681982 -60.98530597 100.45287514 -64.78515625 96.87109375 C-65.28112305 96.43265137 -65.77708984 95.99420898 -66.28808594 95.54248047 C-67.58192669 94.37669526 -68.82762532 93.15717984 -70.04785156 91.91455078 C-77.30354371 85.13743841 -84.1726853 84.85838387 -93.625 85 C-95.02476514 84.99189012 -96.42451431 84.9801964 -97.82421875 84.96484375 C-101.21608542 84.94145157 -104.6082244 84.96586892 -108 85 C-108 78.73 -108 72.46 -108 66 C-85.23 66 -62.46 66 -39 66 C-39 72.27 -39 78.54 -39 85 C-43.29 85.33 -47.58 85.66 -52 86 C-51.16339844 86.71542969 -50.32679687 87.43085938 -49.46484375 88.16796875 C-42.49724976 94.13093291 -35.54978375 100.11611458 -28.62451172 106.12817383 C-23.73991374 110.36585143 -18.83561659 114.58002277 -13.91796875 118.77929688 C-9.58138052 122.48655096 -5.29465392 126.24217782 -1 130 C-0.67 87.1 -0.34 44.2 0 0 Z M208 139 C207.35417969 139.52078125 206.70835937 140.0415625 206.04296875 140.578125 C195.63571302 149.88122493 189.57210384 164.87816277 188.796875 178.59375 C188.57871695 196.77358729 192.50568907 213.3477713 205.55859375 226.8203125 C209.71005263 230.52673498 214.10185015 233.37694707 219 236 C219.90234375 236.4846875 220.8046875 236.969375 221.734375 237.46875 C235.24488864 243.88811007 250.86846627 244.42948408 265.04296875 240.0625 C279.83673276 234.55072246 291.29828251 223.84452071 298.375 209.8125 C305.5893285 192.83169894 305.41830623 175.31498048 299 158 C293.1663751 144.26629373 282.72690876 133.42891309 268.90625 127.72265625 C247.29879412 120.35409423 225.47714258 124.47792983 208 139 Z " fill="#FFB506" transform="translate(147,58)"/>
</svg>
